<mxfile host="app.diagrams.net" agent="Mozilla/5.0 (Windows NT 10.0; Win64; x64) AppleWebKit/537.36 (KHTML, like Gecko) Chrome/137.0.0.0 Safari/537.36" version="27.1.1">
  <diagram name="Page-1" id="eCKQWDLPgAXppKgy05Xa">
    <mxGraphModel dx="1042" dy="527" grid="1" gridSize="10" guides="1" tooltips="1" connect="1" arrows="1" fold="1" page="1" pageScale="1" pageWidth="827" pageHeight="1169" math="0" shadow="0">
      <root>
        <mxCell id="0" />
        <mxCell id="1" parent="0" />
        <mxCell id="8vdn7SjKolCYxSgsDKt6-1" value="系統運行" style="whiteSpace=wrap;strokeWidth=2;" vertex="1" parent="1">
          <mxGeometry x="425" y="20" width="124" height="54" as="geometry" />
        </mxCell>
        <mxCell id="8vdn7SjKolCYxSgsDKt6-2" value="Prometheus監控收集" style="whiteSpace=wrap;strokeWidth=2;" vertex="1" parent="1">
          <mxGeometry x="20" y="332" width="208" height="54" as="geometry" />
        </mxCell>
        <mxCell id="8vdn7SjKolCYxSgsDKt6-3" value="ELK日誌收集" style="whiteSpace=wrap;strokeWidth=2;" vertex="1" parent="1">
          <mxGeometry x="481" y="762" width="150" height="54" as="geometry" />
        </mxCell>
        <mxCell id="8vdn7SjKolCYxSgsDKt6-4" value="Jaeger分散式追蹤" style="whiteSpace=wrap;strokeWidth=2;" vertex="1" parent="1">
          <mxGeometry x="681" y="762" width="188" height="54" as="geometry" />
        </mxCell>
        <mxCell id="8vdn7SjKolCYxSgsDKt6-5" value="Grafana視覺化展示" style="whiteSpace=wrap;strokeWidth=2;" vertex="1" parent="1">
          <mxGeometry x="26" y="436" width="197" height="54" as="geometry" />
        </mxCell>
        <mxCell id="8vdn7SjKolCYxSgsDKt6-6" value="監控指標檢查" style="rhombus;strokeWidth=2;whiteSpace=wrap;" vertex="1" parent="1">
          <mxGeometry x="177" y="540" width="150" height="150" as="geometry" />
        </mxCell>
        <mxCell id="8vdn7SjKolCYxSgsDKt6-7" value="持續監控" style="whiteSpace=wrap;strokeWidth=2;" vertex="1" parent="1">
          <mxGeometry x="297" y="1490" width="124" height="54" as="geometry" />
        </mxCell>
        <mxCell id="8vdn7SjKolCYxSgsDKt6-8" value="觸發告警" style="whiteSpace=wrap;strokeWidth=2;" vertex="1" parent="1">
          <mxGeometry x="280" y="762" width="124" height="54" as="geometry" />
        </mxCell>
        <mxCell id="8vdn7SjKolCYxSgsDKt6-9" value="多級告警機制" style="whiteSpace=wrap;strokeWidth=2;" vertex="1" parent="1">
          <mxGeometry x="264" y="866" width="156" height="54" as="geometry" />
        </mxCell>
        <mxCell id="8vdn7SjKolCYxSgsDKt6-10" value="通知運維團隊" style="whiteSpace=wrap;strokeWidth=2;" vertex="1" parent="1">
          <mxGeometry x="264" y="970" width="156" height="54" as="geometry" />
        </mxCell>
        <mxCell id="8vdn7SjKolCYxSgsDKt6-11" value="問題分析與處理" style="whiteSpace=wrap;strokeWidth=2;" vertex="1" parent="1">
          <mxGeometry x="470" y="1074" width="172" height="54" as="geometry" />
        </mxCell>
        <mxCell id="8vdn7SjKolCYxSgsDKt6-12" value="結構化日誌分析" style="whiteSpace=wrap;strokeWidth=2;" vertex="1" parent="1">
          <mxGeometry x="470" y="866" width="172" height="54" as="geometry" />
        </mxCell>
        <mxCell id="8vdn7SjKolCYxSgsDKt6-13" value="問題定位" style="whiteSpace=wrap;strokeWidth=2;" vertex="1" parent="1">
          <mxGeometry x="494" y="970" width="124" height="54" as="geometry" />
        </mxCell>
        <mxCell id="8vdn7SjKolCYxSgsDKt6-14" value="追蹤鏈路分析" style="whiteSpace=wrap;strokeWidth=2;" vertex="1" parent="1">
          <mxGeometry x="696" y="866" width="156" height="54" as="geometry" />
        </mxCell>
        <mxCell id="8vdn7SjKolCYxSgsDKt6-15" value="效能瓶頸識別" style="whiteSpace=wrap;strokeWidth=2;" vertex="1" parent="1">
          <mxGeometry x="696" y="970" width="156" height="54" as="geometry" />
        </mxCell>
        <mxCell id="8vdn7SjKolCYxSgsDKt6-16" value="問題修復" style="whiteSpace=wrap;strokeWidth=2;" vertex="1" parent="1">
          <mxGeometry x="494" y="1178" width="124" height="54" as="geometry" />
        </mxCell>
        <mxCell id="8vdn7SjKolCYxSgsDKt6-17" value="系統恢復" style="whiteSpace=wrap;strokeWidth=2;" vertex="1" parent="1">
          <mxGeometry x="494" y="1282" width="124" height="54" as="geometry" />
        </mxCell>
        <mxCell id="8vdn7SjKolCYxSgsDKt6-18" value="效能驗證" style="whiteSpace=wrap;strokeWidth=2;" vertex="1" parent="1">
          <mxGeometry x="494" y="1386" width="124" height="54" as="geometry" />
        </mxCell>
        <mxCell id="8vdn7SjKolCYxSgsDKt6-19" value="Docker容器化運行" style="whiteSpace=wrap;strokeWidth=2;" vertex="1" parent="1">
          <mxGeometry x="285" y="124" width="189" height="54" as="geometry" />
        </mxCell>
        <mxCell id="8vdn7SjKolCYxSgsDKt6-20" value="Kubernetes編排管理" style="whiteSpace=wrap;strokeWidth=2;" vertex="1" parent="1">
          <mxGeometry x="278" y="228" width="204" height="54" as="geometry" />
        </mxCell>
        <mxCell id="8vdn7SjKolCYxSgsDKt6-21" value="自動擴展與負載平衡" style="whiteSpace=wrap;strokeWidth=2;" vertex="1" parent="1">
          <mxGeometry x="278" y="332" width="204" height="54" as="geometry" />
        </mxCell>
        <mxCell id="8vdn7SjKolCYxSgsDKt6-22" value="健康檢查" style="whiteSpace=wrap;strokeWidth=2;" vertex="1" parent="1">
          <mxGeometry x="318" y="436" width="124" height="54" as="geometry" />
        </mxCell>
        <mxCell id="8vdn7SjKolCYxSgsDKt6-23" value="" style="curved=1;startArrow=none;endArrow=block;exitX=0;exitY=0.66;entryX=0.5;entryY=0;rounded=0;" edge="1" parent="1" source="8vdn7SjKolCYxSgsDKt6-1" target="8vdn7SjKolCYxSgsDKt6-2">
          <mxGeometry relative="1" as="geometry">
            <Array as="points">
              <mxPoint x="124" y="99" />
            </Array>
          </mxGeometry>
        </mxCell>
        <mxCell id="8vdn7SjKolCYxSgsDKt6-24" value="" style="curved=1;startArrow=none;endArrow=block;exitX=0.79;exitY=1;entryX=0.5;entryY=0.01;rounded=0;" edge="1" parent="1" source="8vdn7SjKolCYxSgsDKt6-1" target="8vdn7SjKolCYxSgsDKt6-3">
          <mxGeometry relative="1" as="geometry">
            <Array as="points">
              <mxPoint x="556" y="99" />
            </Array>
          </mxGeometry>
        </mxCell>
        <mxCell id="8vdn7SjKolCYxSgsDKt6-25" value="" style="curved=1;startArrow=none;endArrow=block;exitX=1;exitY=0.71;entryX=0.5;entryY=0.01;rounded=0;" edge="1" parent="1" source="8vdn7SjKolCYxSgsDKt6-1" target="8vdn7SjKolCYxSgsDKt6-4">
          <mxGeometry relative="1" as="geometry">
            <Array as="points">
              <mxPoint x="774" y="99" />
            </Array>
          </mxGeometry>
        </mxCell>
        <mxCell id="8vdn7SjKolCYxSgsDKt6-26" value="" style="curved=1;startArrow=none;endArrow=block;exitX=0.5;exitY=1;entryX=0.5;entryY=0;rounded=0;" edge="1" parent="1" source="8vdn7SjKolCYxSgsDKt6-2" target="8vdn7SjKolCYxSgsDKt6-5">
          <mxGeometry relative="1" as="geometry">
            <Array as="points" />
          </mxGeometry>
        </mxCell>
        <mxCell id="8vdn7SjKolCYxSgsDKt6-27" value="" style="curved=1;startArrow=none;endArrow=block;exitX=0.5;exitY=1;entryX=0;entryY=0.11;rounded=0;" edge="1" parent="1" source="8vdn7SjKolCYxSgsDKt6-5" target="8vdn7SjKolCYxSgsDKt6-6">
          <mxGeometry relative="1" as="geometry">
            <Array as="points">
              <mxPoint x="124" y="515" />
            </Array>
          </mxGeometry>
        </mxCell>
        <mxCell id="8vdn7SjKolCYxSgsDKt6-28" value="正常" style="curved=1;startArrow=none;endArrow=block;exitX=0.25;exitY=1;entryX=0;entryY=0.14;rounded=0;" edge="1" parent="1" source="8vdn7SjKolCYxSgsDKt6-6" target="8vdn7SjKolCYxSgsDKt6-7">
          <mxGeometry relative="1" as="geometry">
            <Array as="points">
              <mxPoint x="196" y="726" />
              <mxPoint x="196" y="1465" />
            </Array>
          </mxGeometry>
        </mxCell>
        <mxCell id="8vdn7SjKolCYxSgsDKt6-29" value="異常" style="curved=1;startArrow=none;endArrow=block;exitX=0.9;exitY=1;entryX=0.5;entryY=0.01;rounded=0;" edge="1" parent="1" source="8vdn7SjKolCYxSgsDKt6-6" target="8vdn7SjKolCYxSgsDKt6-8">
          <mxGeometry relative="1" as="geometry">
            <Array as="points">
              <mxPoint x="342" y="726" />
            </Array>
          </mxGeometry>
        </mxCell>
        <mxCell id="8vdn7SjKolCYxSgsDKt6-30" value="" style="curved=1;startArrow=none;endArrow=block;exitX=0.5;exitY=1.01;entryX=0.5;entryY=0.01;rounded=0;" edge="1" parent="1" source="8vdn7SjKolCYxSgsDKt6-8" target="8vdn7SjKolCYxSgsDKt6-9">
          <mxGeometry relative="1" as="geometry">
            <Array as="points" />
          </mxGeometry>
        </mxCell>
        <mxCell id="8vdn7SjKolCYxSgsDKt6-31" value="" style="curved=1;startArrow=none;endArrow=block;exitX=0.5;exitY=1.01;entryX=0.5;entryY=0.01;rounded=0;" edge="1" parent="1" source="8vdn7SjKolCYxSgsDKt6-9" target="8vdn7SjKolCYxSgsDKt6-10">
          <mxGeometry relative="1" as="geometry">
            <Array as="points" />
          </mxGeometry>
        </mxCell>
        <mxCell id="8vdn7SjKolCYxSgsDKt6-32" value="" style="curved=1;startArrow=none;endArrow=block;exitX=0.5;exitY=1.01;entryX=0;entryY=0.12;rounded=0;" edge="1" parent="1" source="8vdn7SjKolCYxSgsDKt6-10" target="8vdn7SjKolCYxSgsDKt6-11">
          <mxGeometry relative="1" as="geometry">
            <Array as="points">
              <mxPoint x="342" y="1049" />
            </Array>
          </mxGeometry>
        </mxCell>
        <mxCell id="8vdn7SjKolCYxSgsDKt6-33" value="" style="curved=1;startArrow=none;endArrow=block;exitX=0.5;exitY=1.01;entryX=0.5;entryY=0.01;rounded=0;" edge="1" parent="1" source="8vdn7SjKolCYxSgsDKt6-3" target="8vdn7SjKolCYxSgsDKt6-12">
          <mxGeometry relative="1" as="geometry">
            <Array as="points" />
          </mxGeometry>
        </mxCell>
        <mxCell id="8vdn7SjKolCYxSgsDKt6-34" value="" style="curved=1;startArrow=none;endArrow=block;exitX=0.5;exitY=1.01;entryX=0.5;entryY=0.01;rounded=0;" edge="1" parent="1" source="8vdn7SjKolCYxSgsDKt6-12" target="8vdn7SjKolCYxSgsDKt6-13">
          <mxGeometry relative="1" as="geometry">
            <Array as="points" />
          </mxGeometry>
        </mxCell>
        <mxCell id="8vdn7SjKolCYxSgsDKt6-35" value="" style="curved=1;startArrow=none;endArrow=block;exitX=0.5;exitY=1.01;entryX=0.5;entryY=0.01;rounded=0;" edge="1" parent="1" source="8vdn7SjKolCYxSgsDKt6-13" target="8vdn7SjKolCYxSgsDKt6-11">
          <mxGeometry relative="1" as="geometry">
            <Array as="points" />
          </mxGeometry>
        </mxCell>
        <mxCell id="8vdn7SjKolCYxSgsDKt6-36" value="" style="curved=1;startArrow=none;endArrow=block;exitX=0.5;exitY=1.01;entryX=0.5;entryY=0.01;rounded=0;" edge="1" parent="1" source="8vdn7SjKolCYxSgsDKt6-4" target="8vdn7SjKolCYxSgsDKt6-14">
          <mxGeometry relative="1" as="geometry">
            <Array as="points" />
          </mxGeometry>
        </mxCell>
        <mxCell id="8vdn7SjKolCYxSgsDKt6-37" value="" style="curved=1;startArrow=none;endArrow=block;exitX=0.5;exitY=1.01;entryX=0.5;entryY=0.01;rounded=0;" edge="1" parent="1" source="8vdn7SjKolCYxSgsDKt6-14" target="8vdn7SjKolCYxSgsDKt6-15">
          <mxGeometry relative="1" as="geometry">
            <Array as="points" />
          </mxGeometry>
        </mxCell>
        <mxCell id="8vdn7SjKolCYxSgsDKt6-38" value="" style="curved=1;startArrow=none;endArrow=block;exitX=0.5;exitY=1.01;entryX=1;entryY=0.13;rounded=0;" edge="1" parent="1" source="8vdn7SjKolCYxSgsDKt6-15" target="8vdn7SjKolCYxSgsDKt6-11">
          <mxGeometry relative="1" as="geometry">
            <Array as="points">
              <mxPoint x="774" y="1049" />
            </Array>
          </mxGeometry>
        </mxCell>
        <mxCell id="8vdn7SjKolCYxSgsDKt6-39" value="" style="curved=1;startArrow=none;endArrow=block;exitX=0.5;exitY=1.01;entryX=0.5;entryY=0.01;rounded=0;" edge="1" parent="1" source="8vdn7SjKolCYxSgsDKt6-11" target="8vdn7SjKolCYxSgsDKt6-16">
          <mxGeometry relative="1" as="geometry">
            <Array as="points" />
          </mxGeometry>
        </mxCell>
        <mxCell id="8vdn7SjKolCYxSgsDKt6-40" value="" style="curved=1;startArrow=none;endArrow=block;exitX=0.5;exitY=1.01;entryX=0.5;entryY=0.01;rounded=0;" edge="1" parent="1" source="8vdn7SjKolCYxSgsDKt6-16" target="8vdn7SjKolCYxSgsDKt6-17">
          <mxGeometry relative="1" as="geometry">
            <Array as="points" />
          </mxGeometry>
        </mxCell>
        <mxCell id="8vdn7SjKolCYxSgsDKt6-41" value="" style="curved=1;startArrow=none;endArrow=block;exitX=0.5;exitY=1.01;entryX=0.5;entryY=0.01;rounded=0;" edge="1" parent="1" source="8vdn7SjKolCYxSgsDKt6-17" target="8vdn7SjKolCYxSgsDKt6-18">
          <mxGeometry relative="1" as="geometry">
            <Array as="points" />
          </mxGeometry>
        </mxCell>
        <mxCell id="8vdn7SjKolCYxSgsDKt6-42" value="" style="curved=1;startArrow=none;endArrow=block;exitX=0.5;exitY=1.01;entryX=1;entryY=0.2;rounded=0;" edge="1" parent="1" source="8vdn7SjKolCYxSgsDKt6-18" target="8vdn7SjKolCYxSgsDKt6-7">
          <mxGeometry relative="1" as="geometry">
            <Array as="points">
              <mxPoint x="556" y="1465" />
            </Array>
          </mxGeometry>
        </mxCell>
        <mxCell id="8vdn7SjKolCYxSgsDKt6-43" value="" style="curved=1;startArrow=none;endArrow=block;exitX=0.05;exitY=1;entryX=0.5;entryY=0;rounded=0;" edge="1" parent="1" source="8vdn7SjKolCYxSgsDKt6-1" target="8vdn7SjKolCYxSgsDKt6-19">
          <mxGeometry relative="1" as="geometry">
            <Array as="points">
              <mxPoint x="380" y="99" />
            </Array>
          </mxGeometry>
        </mxCell>
        <mxCell id="8vdn7SjKolCYxSgsDKt6-44" value="" style="curved=1;startArrow=none;endArrow=block;exitX=0.5;exitY=1;entryX=0.5;entryY=0;rounded=0;" edge="1" parent="1" source="8vdn7SjKolCYxSgsDKt6-19" target="8vdn7SjKolCYxSgsDKt6-20">
          <mxGeometry relative="1" as="geometry">
            <Array as="points" />
          </mxGeometry>
        </mxCell>
        <mxCell id="8vdn7SjKolCYxSgsDKt6-45" value="" style="curved=1;startArrow=none;endArrow=block;exitX=0.5;exitY=1;entryX=0.5;entryY=0;rounded=0;" edge="1" parent="1" source="8vdn7SjKolCYxSgsDKt6-20" target="8vdn7SjKolCYxSgsDKt6-21">
          <mxGeometry relative="1" as="geometry">
            <Array as="points" />
          </mxGeometry>
        </mxCell>
        <mxCell id="8vdn7SjKolCYxSgsDKt6-46" value="" style="curved=1;startArrow=none;endArrow=block;exitX=0.5;exitY=1;entryX=0.5;entryY=0;rounded=0;" edge="1" parent="1" source="8vdn7SjKolCYxSgsDKt6-21" target="8vdn7SjKolCYxSgsDKt6-22">
          <mxGeometry relative="1" as="geometry">
            <Array as="points" />
          </mxGeometry>
        </mxCell>
        <mxCell id="8vdn7SjKolCYxSgsDKt6-47" value="" style="curved=1;startArrow=none;endArrow=block;exitX=0.5;exitY=1;entryX=1;entryY=0.11;rounded=0;" edge="1" parent="1" source="8vdn7SjKolCYxSgsDKt6-22" target="8vdn7SjKolCYxSgsDKt6-6">
          <mxGeometry relative="1" as="geometry">
            <Array as="points">
              <mxPoint x="380" y="515" />
            </Array>
          </mxGeometry>
        </mxCell>
      </root>
    </mxGraphModel>
  </diagram>
</mxfile>
